<mxfile host="app.diagrams.net" modified="2020-07-17T15:13:54.452Z" agent="5.0 (Windows NT 10.0; Win64; x64) AppleWebKit/537.36 (KHTML, like Gecko) Chrome/84.0.4147.89 Safari/537.36" etag="X-wTotFceanH4ul8TsYs" version="13.4.5" type="github">
  <diagram id="_DveeiFw1rA9gOVqHDl5" name="Page-1">
    <mxGraphModel dx="1422" dy="1862" grid="1" gridSize="10" guides="1" tooltips="1" connect="1" arrows="1" fold="1" page="1" pageScale="1" pageWidth="850" pageHeight="1100" math="0" shadow="0">
      <root>
        <mxCell id="0" />
        <mxCell id="1" parent="0" />
        <mxCell id="Qa1ZIfGvWoJUYzIrE15H-46" value="Edit Individual Membership" style="rounded=1;whiteSpace=wrap;html=1;fontSize=12;glass=0;strokeWidth=1;shadow=0;" vertex="1" parent="1">
          <mxGeometry x="168.5" y="-80" width="120" height="40" as="geometry" />
        </mxCell>
        <mxCell id="Qa1ZIfGvWoJUYzIrE15H-47" value="No" style="edgeStyle=orthogonalEdgeStyle;rounded=0;orthogonalLoop=1;jettySize=auto;html=1;" edge="1" parent="1" source="Qa1ZIfGvWoJUYzIrE15H-49" target="Qa1ZIfGvWoJUYzIrE15H-50">
          <mxGeometry relative="1" as="geometry" />
        </mxCell>
        <mxCell id="Qa1ZIfGvWoJUYzIrE15H-48" value="yes" style="edgeStyle=orthogonalEdgeStyle;rounded=0;orthogonalLoop=1;jettySize=auto;html=1;" edge="1" parent="1" source="Qa1ZIfGvWoJUYzIrE15H-49" target="Qa1ZIfGvWoJUYzIrE15H-64">
          <mxGeometry relative="1" as="geometry" />
        </mxCell>
        <mxCell id="Qa1ZIfGvWoJUYzIrE15H-49" value="Are all required fields filled in?" style="rhombus;whiteSpace=wrap;html=1;rounded=0;" vertex="1" parent="1">
          <mxGeometry x="990" y="-70" width="80" height="80" as="geometry" />
        </mxCell>
        <mxCell id="Qa1ZIfGvWoJUYzIrE15H-50" value="Throw validation" style="whiteSpace=wrap;html=1;rounded=0;" vertex="1" parent="1">
          <mxGeometry x="1130" y="-60" width="120" height="60" as="geometry" />
        </mxCell>
        <mxCell id="Qa1ZIfGvWoJUYzIrE15H-51" value="" style="edgeStyle=orthogonalEdgeStyle;rounded=0;orthogonalLoop=1;jettySize=auto;html=1;exitX=0.5;exitY=1;exitDx=0;exitDy=0;entryX=0.5;entryY=0;entryDx=0;entryDy=0;" edge="1" parent="1" source="Qa1ZIfGvWoJUYzIrE15H-52" target="Qa1ZIfGvWoJUYzIrE15H-58">
          <mxGeometry relative="1" as="geometry">
            <mxPoint x="220" y="610" as="sourcePoint" />
            <mxPoint x="220" y="640" as="targetPoint" />
          </mxGeometry>
        </mxCell>
        <mxCell id="Qa1ZIfGvWoJUYzIrE15H-52" value="Update Related" style="whiteSpace=wrap;html=1;rounded=0;" vertex="1" parent="1">
          <mxGeometry x="160" y="520" width="120" height="60" as="geometry" />
        </mxCell>
        <mxCell id="Qa1ZIfGvWoJUYzIrE15H-53" value="" style="edgeStyle=orthogonalEdgeStyle;rounded=0;orthogonalLoop=1;jettySize=auto;html=1;" edge="1" parent="1" source="Qa1ZIfGvWoJUYzIrE15H-54" target="Qa1ZIfGvWoJUYzIrE15H-99">
          <mxGeometry relative="1" as="geometry" />
        </mxCell>
        <mxCell id="Qa1ZIfGvWoJUYzIrE15H-54" value="Edit account membership" style="rounded=0;whiteSpace=wrap;html=1;" vertex="1" parent="1">
          <mxGeometry x="168.5" y="-10" width="120" height="60" as="geometry" />
        </mxCell>
        <mxCell id="Qa1ZIfGvWoJUYzIrE15H-55" value="" style="edgeStyle=orthogonalEdgeStyle;rounded=0;orthogonalLoop=1;jettySize=auto;html=1;" edge="1" parent="1" source="Qa1ZIfGvWoJUYzIrE15H-46" target="Qa1ZIfGvWoJUYzIrE15H-54">
          <mxGeometry relative="1" as="geometry">
            <mxPoint x="228.5" y="-40" as="sourcePoint" />
            <mxPoint x="228.5" y="40" as="targetPoint" />
          </mxGeometry>
        </mxCell>
        <mxCell id="Qa1ZIfGvWoJUYzIrE15H-56" value="" style="edgeStyle=orthogonalEdgeStyle;rounded=0;orthogonalLoop=1;jettySize=auto;html=1;entryX=0.5;entryY=0;entryDx=0;entryDy=0;exitX=0.55;exitY=0.95;exitDx=0;exitDy=0;exitPerimeter=0;" edge="1" parent="1" source="Qa1ZIfGvWoJUYzIrE15H-100" target="Qa1ZIfGvWoJUYzIrE15H-60">
          <mxGeometry relative="1" as="geometry">
            <mxPoint x="220" y="780" as="targetPoint" />
          </mxGeometry>
        </mxCell>
        <mxCell id="Qa1ZIfGvWoJUYzIrE15H-57" value="" style="edgeStyle=orthogonalEdgeStyle;rounded=0;orthogonalLoop=1;jettySize=auto;html=1;" edge="1" parent="1" source="Qa1ZIfGvWoJUYzIrE15H-58" target="Qa1ZIfGvWoJUYzIrE15H-100">
          <mxGeometry relative="1" as="geometry" />
        </mxCell>
        <mxCell id="Qa1ZIfGvWoJUYzIrE15H-58" value="Create new account membership Items for membership via account membership grid" style="whiteSpace=wrap;html=1;shadow=0;strokeWidth=1;spacing=6;spacingTop=-4;" vertex="1" parent="1">
          <mxGeometry x="160" y="650" width="120" height="67" as="geometry" />
        </mxCell>
        <mxCell id="Qa1ZIfGvWoJUYzIrE15H-59" value="" style="edgeStyle=orthogonalEdgeStyle;rounded=0;orthogonalLoop=1;jettySize=auto;html=1;exitX=0.5;exitY=1;exitDx=0;exitDy=0;" edge="1" parent="1" source="Qa1ZIfGvWoJUYzIrE15H-58" target="Qa1ZIfGvWoJUYzIrE15H-69">
          <mxGeometry relative="1" as="geometry" />
        </mxCell>
        <mxCell id="Qa1ZIfGvWoJUYzIrE15H-60" value="Create order install ment (er101s) items based on subscription items. Items are tied to the member via an id or account code (shared method ideally for add/edit)" style="whiteSpace=wrap;html=1;shadow=0;strokeWidth=1;spacing=6;spacingTop=-4;" vertex="1" parent="1">
          <mxGeometry x="415" y="790" width="150" height="105" as="geometry" />
        </mxCell>
        <mxCell id="Qa1ZIfGvWoJUYzIrE15H-61" value="No" style="edgeStyle=orthogonalEdgeStyle;rounded=0;orthogonalLoop=1;jettySize=auto;html=1;" edge="1" parent="1" source="Qa1ZIfGvWoJUYzIrE15H-64" target="Qa1ZIfGvWoJUYzIrE15H-65">
          <mxGeometry relative="1" as="geometry" />
        </mxCell>
        <mxCell id="Qa1ZIfGvWoJUYzIrE15H-62" value="No" style="edgeStyle=orthogonalEdgeStyle;rounded=0;orthogonalLoop=1;jettySize=auto;html=1;entryX=1;entryY=0.5;entryDx=0;entryDy=0;exitX=0;exitY=0.5;exitDx=0;exitDy=0;" edge="1" parent="1" source="Qa1ZIfGvWoJUYzIrE15H-72" target="Qa1ZIfGvWoJUYzIrE15H-67">
          <mxGeometry x="0.0135" relative="1" as="geometry">
            <mxPoint x="470" y="510" as="targetPoint" />
            <mxPoint x="530" y="540" as="sourcePoint" />
            <Array as="points">
              <mxPoint x="830" y="885" />
              <mxPoint x="830" y="290" />
            </Array>
            <mxPoint as="offset" />
          </mxGeometry>
        </mxCell>
        <mxCell id="Qa1ZIfGvWoJUYzIrE15H-63" value="Yes" style="edgeStyle=orthogonalEdgeStyle;rounded=0;orthogonalLoop=1;jettySize=auto;html=1;" edge="1" parent="1" source="Qa1ZIfGvWoJUYzIrE15H-64" target="Qa1ZIfGvWoJUYzIrE15H-76">
          <mxGeometry relative="1" as="geometry" />
        </mxCell>
        <mxCell id="Qa1ZIfGvWoJUYzIrE15H-64" value="Is membership start date within the period" style="rhombus;whiteSpace=wrap;html=1;rounded=0;" vertex="1" parent="1">
          <mxGeometry x="990" y="40" width="80" height="80" as="geometry" />
        </mxCell>
        <mxCell id="Qa1ZIfGvWoJUYzIrE15H-65" value="&lt;span&gt;Throw validation&lt;/span&gt;" style="whiteSpace=wrap;html=1;rounded=0;" vertex="1" parent="1">
          <mxGeometry x="1130" y="50" width="120" height="60" as="geometry" />
        </mxCell>
        <mxCell id="Qa1ZIfGvWoJUYzIrE15H-66" value="" style="edgeStyle=orthogonalEdgeStyle;rounded=0;orthogonalLoop=1;jettySize=auto;html=1;entryX=0.5;entryY=0;entryDx=0;entryDy=0;" edge="1" parent="1" source="Qa1ZIfGvWoJUYzIrE15H-67" target="Qa1ZIfGvWoJUYzIrE15H-52">
          <mxGeometry relative="1" as="geometry">
            <mxPoint x="220" y="390" as="targetPoint" />
          </mxGeometry>
        </mxCell>
        <mxCell id="Qa1ZIfGvWoJUYzIrE15H-67" value="Process" style="whiteSpace=wrap;html=1;rounded=0;" vertex="1" parent="1">
          <mxGeometry x="160" y="260" width="120" height="60" as="geometry" />
        </mxCell>
        <mxCell id="Qa1ZIfGvWoJUYzIrE15H-68" style="edgeStyle=orthogonalEdgeStyle;rounded=0;orthogonalLoop=1;jettySize=auto;html=1;entryX=0.5;entryY=0;entryDx=0;entryDy=0;" edge="1" parent="1" source="Qa1ZIfGvWoJUYzIrE15H-69" target="Qa1ZIfGvWoJUYzIrE15H-101">
          <mxGeometry relative="1" as="geometry" />
        </mxCell>
        <mxCell id="Qa1ZIfGvWoJUYzIrE15H-69" value="Set&lt;br&gt;Administrator records via a computed column using special generic util method. Examples in profiles. Fill in list data and business by a shared util&amp;nbsp; method." style="whiteSpace=wrap;html=1;shadow=0;strokeWidth=1;spacing=6;spacingTop=-4;" vertex="1" parent="1">
          <mxGeometry x="150" y="778.38" width="140" height="140" as="geometry" />
        </mxCell>
        <mxCell id="Qa1ZIfGvWoJUYzIrE15H-70" value="Yes" style="edgeStyle=orthogonalEdgeStyle;rounded=0;orthogonalLoop=1;jettySize=auto;html=1;" edge="1" parent="1" source="Qa1ZIfGvWoJUYzIrE15H-72" target="Qa1ZIfGvWoJUYzIrE15H-73">
          <mxGeometry relative="1" as="geometry" />
        </mxCell>
        <mxCell id="Qa1ZIfGvWoJUYzIrE15H-71" value="" style="edgeStyle=orthogonalEdgeStyle;rounded=0;orthogonalLoop=1;jettySize=auto;html=1;" edge="1" parent="1" source="Qa1ZIfGvWoJUYzIrE15H-72" target="Qa1ZIfGvWoJUYzIrE15H-73">
          <mxGeometry relative="1" as="geometry" />
        </mxCell>
        <mxCell id="Qa1ZIfGvWoJUYzIrE15H-72" value="&lt;span style=&quot;font-size: 10px&quot;&gt;Has Member Type been changed&lt;/span&gt;" style="rhombus;whiteSpace=wrap;html=1;rounded=0;" vertex="1" parent="1">
          <mxGeometry x="960" y="820" width="140" height="130" as="geometry" />
        </mxCell>
        <mxCell id="Qa1ZIfGvWoJUYzIrE15H-73" value="Throw Validation" style="whiteSpace=wrap;html=1;rounded=0;" vertex="1" parent="1">
          <mxGeometry x="1130" y="855" width="120" height="60" as="geometry" />
        </mxCell>
        <mxCell id="Qa1ZIfGvWoJUYzIrE15H-74" value="No" style="edgeStyle=orthogonalEdgeStyle;rounded=0;orthogonalLoop=1;jettySize=auto;html=1;" edge="1" parent="1" source="Qa1ZIfGvWoJUYzIrE15H-76" target="Qa1ZIfGvWoJUYzIrE15H-79">
          <mxGeometry relative="1" as="geometry" />
        </mxCell>
        <mxCell id="Qa1ZIfGvWoJUYzIrE15H-75" value="Yes" style="edgeStyle=orthogonalEdgeStyle;rounded=0;orthogonalLoop=1;jettySize=auto;html=1;" edge="1" parent="1" source="Qa1ZIfGvWoJUYzIrE15H-76" target="Qa1ZIfGvWoJUYzIrE15H-83">
          <mxGeometry relative="1" as="geometry" />
        </mxCell>
        <mxCell id="Qa1ZIfGvWoJUYzIrE15H-76" value="Has Installment changed" style="rhombus;whiteSpace=wrap;html=1;rounded=0;" vertex="1" parent="1">
          <mxGeometry x="990" y="160" width="80" height="80" as="geometry" />
        </mxCell>
        <mxCell id="Qa1ZIfGvWoJUYzIrE15H-77" value="No" style="edgeStyle=orthogonalEdgeStyle;rounded=0;orthogonalLoop=1;jettySize=auto;html=1;" edge="1" parent="1" source="Qa1ZIfGvWoJUYzIrE15H-79" target="Qa1ZIfGvWoJUYzIrE15H-82">
          <mxGeometry relative="1" as="geometry" />
        </mxCell>
        <mxCell id="Qa1ZIfGvWoJUYzIrE15H-78" value="Yes" style="edgeStyle=orthogonalEdgeStyle;rounded=0;orthogonalLoop=1;jettySize=auto;html=1;" edge="1" parent="1" source="Qa1ZIfGvWoJUYzIrE15H-79" target="Qa1ZIfGvWoJUYzIrE15H-84">
          <mxGeometry relative="1" as="geometry" />
        </mxCell>
        <mxCell id="Qa1ZIfGvWoJUYzIrE15H-79" value="Has Period Changed" style="rhombus;whiteSpace=wrap;html=1;rounded=0;" vertex="1" parent="1">
          <mxGeometry x="990" y="260" width="80" height="80" as="geometry" />
        </mxCell>
        <mxCell id="Qa1ZIfGvWoJUYzIrE15H-80" value="Yes" style="edgeStyle=orthogonalEdgeStyle;rounded=0;orthogonalLoop=1;jettySize=auto;html=1;" edge="1" parent="1" source="Qa1ZIfGvWoJUYzIrE15H-82" target="Qa1ZIfGvWoJUYzIrE15H-85">
          <mxGeometry relative="1" as="geometry" />
        </mxCell>
        <mxCell id="Qa1ZIfGvWoJUYzIrE15H-81" value="No" style="edgeStyle=orthogonalEdgeStyle;rounded=0;orthogonalLoop=1;jettySize=auto;html=1;" edge="1" parent="1" source="Qa1ZIfGvWoJUYzIrE15H-82" target="Qa1ZIfGvWoJUYzIrE15H-88">
          <mxGeometry relative="1" as="geometry" />
        </mxCell>
        <mxCell id="Qa1ZIfGvWoJUYzIrE15H-82" value="" style="rhombus;whiteSpace=wrap;html=1;rounded=0;" vertex="1" parent="1">
          <mxGeometry x="990" y="370" width="80" height="80" as="geometry" />
        </mxCell>
        <mxCell id="Qa1ZIfGvWoJUYzIrE15H-83" value="Throw validation this cannot be changed" style="whiteSpace=wrap;html=1;rounded=0;" vertex="1" parent="1">
          <mxGeometry x="1130" y="170" width="120" height="60" as="geometry" />
        </mxCell>
        <mxCell id="Qa1ZIfGvWoJUYzIrE15H-84" value="&lt;span&gt;Throw validation this cannot be changed&lt;/span&gt;" style="whiteSpace=wrap;html=1;rounded=0;" vertex="1" parent="1">
          <mxGeometry x="1130" y="270" width="120" height="60" as="geometry" />
        </mxCell>
        <mxCell id="Qa1ZIfGvWoJUYzIrE15H-85" value="&lt;span&gt;Throw validation this cannot be changed&lt;/span&gt;" style="whiteSpace=wrap;html=1;rounded=0;" vertex="1" parent="1">
          <mxGeometry x="1130" y="380" width="120" height="60" as="geometry" />
        </mxCell>
        <mxCell id="Qa1ZIfGvWoJUYzIrE15H-86" value="Yes" style="edgeStyle=orthogonalEdgeStyle;rounded=0;orthogonalLoop=1;jettySize=auto;html=1;" edge="1" parent="1" source="Qa1ZIfGvWoJUYzIrE15H-88" target="Qa1ZIfGvWoJUYzIrE15H-89">
          <mxGeometry relative="1" as="geometry" />
        </mxCell>
        <mxCell id="Qa1ZIfGvWoJUYzIrE15H-87" value="No" style="edgeStyle=orthogonalEdgeStyle;rounded=0;orthogonalLoop=1;jettySize=auto;html=1;" edge="1" parent="1" source="Qa1ZIfGvWoJUYzIrE15H-88" target="Qa1ZIfGvWoJUYzIrE15H-91">
          <mxGeometry relative="1" as="geometry" />
        </mxCell>
        <mxCell id="Qa1ZIfGvWoJUYzIrE15H-88" value="Has Classification Changed?" style="rhombus;whiteSpace=wrap;html=1;rounded=0;" vertex="1" parent="1">
          <mxGeometry x="990" y="490" width="80" height="80" as="geometry" />
        </mxCell>
        <mxCell id="Qa1ZIfGvWoJUYzIrE15H-89" value="&lt;span&gt;Throw validation this cannot be changed&lt;/span&gt;" style="whiteSpace=wrap;html=1;rounded=0;" vertex="1" parent="1">
          <mxGeometry x="1130" y="500" width="120" height="60" as="geometry" />
        </mxCell>
        <mxCell id="Qa1ZIfGvWoJUYzIrE15H-90" value="Yes" style="edgeStyle=orthogonalEdgeStyle;rounded=0;orthogonalLoop=1;jettySize=auto;html=1;" edge="1" parent="1" source="Qa1ZIfGvWoJUYzIrE15H-91" target="Qa1ZIfGvWoJUYzIrE15H-92">
          <mxGeometry relative="1" as="geometry" />
        </mxCell>
        <mxCell id="Qa1ZIfGvWoJUYzIrE15H-91" value="" style="rhombus;whiteSpace=wrap;html=1;rounded=0;" vertex="1" parent="1">
          <mxGeometry x="990" y="600" width="80" height="80" as="geometry" />
        </mxCell>
        <mxCell id="Qa1ZIfGvWoJUYzIrE15H-92" value="&lt;span&gt;Throw validation this cannot be changed&lt;/span&gt;" style="whiteSpace=wrap;html=1;rounded=0;" vertex="1" parent="1">
          <mxGeometry x="1130" y="610" width="120" height="60" as="geometry" />
        </mxCell>
        <mxCell id="Qa1ZIfGvWoJUYzIrE15H-93" value="No" style="edgeStyle=orthogonalEdgeStyle;rounded=0;orthogonalLoop=1;jettySize=auto;html=1;exitX=0.5;exitY=1;exitDx=0;exitDy=0;entryX=0.5;entryY=0;entryDx=0;entryDy=0;" edge="1" parent="1" source="Qa1ZIfGvWoJUYzIrE15H-91" target="Qa1ZIfGvWoJUYzIrE15H-96">
          <mxGeometry relative="1" as="geometry">
            <mxPoint x="1040" y="580" as="sourcePoint" />
            <Array as="points">
              <mxPoint x="1030" y="730" />
            </Array>
          </mxGeometry>
        </mxCell>
        <mxCell id="Qa1ZIfGvWoJUYzIrE15H-94" value="Yes" style="edgeStyle=orthogonalEdgeStyle;rounded=0;orthogonalLoop=1;jettySize=auto;html=1;" edge="1" parent="1" source="Qa1ZIfGvWoJUYzIrE15H-96" target="Qa1ZIfGvWoJUYzIrE15H-97">
          <mxGeometry relative="1" as="geometry" />
        </mxCell>
        <mxCell id="Qa1ZIfGvWoJUYzIrE15H-95" value="" style="edgeStyle=orthogonalEdgeStyle;rounded=0;orthogonalLoop=1;jettySize=auto;html=1;" edge="1" parent="1" source="Qa1ZIfGvWoJUYzIrE15H-96" target="Qa1ZIfGvWoJUYzIrE15H-72">
          <mxGeometry relative="1" as="geometry" />
        </mxCell>
        <mxCell id="Qa1ZIfGvWoJUYzIrE15H-96" value="" style="rhombus;whiteSpace=wrap;html=1;rounded=0;" vertex="1" parent="1">
          <mxGeometry x="990" y="720" width="80" height="80" as="geometry" />
        </mxCell>
        <mxCell id="Qa1ZIfGvWoJUYzIrE15H-97" value="&lt;span&gt;Throw validation this cannot be changed&lt;/span&gt;" style="whiteSpace=wrap;html=1;rounded=0;" vertex="1" parent="1">
          <mxGeometry x="1130" y="730" width="120" height="60" as="geometry" />
        </mxCell>
        <mxCell id="Qa1ZIfGvWoJUYzIrE15H-98" value="" style="edgeStyle=orthogonalEdgeStyle;rounded=0;orthogonalLoop=1;jettySize=auto;html=1;entryX=0;entryY=0.5;entryDx=0;entryDy=0;" edge="1" parent="1" source="Qa1ZIfGvWoJUYzIrE15H-99" target="Qa1ZIfGvWoJUYzIrE15H-49">
          <mxGeometry relative="1" as="geometry">
            <mxPoint x="368.5" y="160" as="targetPoint" />
          </mxGeometry>
        </mxCell>
        <mxCell id="Qa1ZIfGvWoJUYzIrE15H-99" value="Validate" style="whiteSpace=wrap;html=1;rounded=0;" vertex="1" parent="1">
          <mxGeometry x="168.5" y="130" width="120" height="60" as="geometry" />
        </mxCell>
        <mxCell id="Qa1ZIfGvWoJUYzIrE15H-100" value="If new items are added to an existing membership&amp;nbsp; validation question should be asked if it is desired to add to all the installments.&lt;br&gt;This should be done in the account membership items business class. That way it is handled for the grid here and for adding items via an add items window." style="ellipse;shape=cloud;whiteSpace=wrap;html=1;shadow=0;strokeWidth=1;spacing=6;spacingTop=-4;" vertex="1" parent="1">
          <mxGeometry x="380" y="580" width="220" height="198.38" as="geometry" />
        </mxCell>
        <mxCell id="Qa1ZIfGvWoJUYzIrE15H-101" value="Set&lt;br&gt;group records via a computed column using special generic util method. Examples in profiles. Fill in list data and business by a shared util&amp;nbsp; method." style="whiteSpace=wrap;html=1;shadow=0;strokeWidth=1;spacing=6;spacingTop=-4;" vertex="1" parent="1">
          <mxGeometry x="155" y="960" width="130" height="140" as="geometry" />
        </mxCell>
      </root>
    </mxGraphModel>
  </diagram>
</mxfile>
